<svg xmlns="http://www.w3.org/2000/svg" width="200.122" height="11.208" viewBox="0 0 200.122 11.208">
  <path id="Path_8" data-name="Path 8" d="M-113.933-11.377l-1.142.915a4.564,4.564,0,0,0-.82-.7,2.011,2.011,0,0,0-1.062-.231,2.048,2.048,0,0,0-1.232.343,1.048,1.048,0,0,0-.473.884,1.073,1.073,0,0,0,.413.828,5.653,5.653,0,0,0,1.407.786,10.04,10.04,0,0,1,1.548.8,3.95,3.95,0,0,1,.909.813,3.207,3.207,0,0,1,.529.939,3.12,3.12,0,0,1,.174,1.044,2.941,2.941,0,0,1-.935,2.193,3.134,3.134,0,0,1-2.263.906,3.835,3.835,0,0,1-2.288-.709A4.446,4.446,0,0,1-120.7-4.7l1.409-.4a2.5,2.5,0,0,0,2.357,1.741,1.839,1.839,0,0,0,1.279-.46,1.5,1.5,0,0,0,.51-1.163,1.572,1.572,0,0,0-.267-.844,2.385,2.385,0,0,0-.665-.7,7.1,7.1,0,0,0-1.264-.63A8.953,8.953,0,0,1-118.67-7.8a3.439,3.439,0,0,1-.809-.7,2.976,2.976,0,0,1-.5-.813,2.352,2.352,0,0,1-.158-.866,2.425,2.425,0,0,1,.891-1.89,3.166,3.166,0,0,1,2.162-.781,4.385,4.385,0,0,1,1.709.364A3.511,3.511,0,0,1-113.933-11.377Zm18.177-1.15h6.308v1.409h-2.462V-2.21H-93.3v-8.908h-2.454Zm24.688,0h1.393V-2.21h-1.393Zm20.68,0h1.393V-3.6h3.361V-2.21h-4.754Zm23.2,0H-25.8V-3.6h3.361V-2.21H-27.19Zm22.915-.413L3.354-5.1v-7.428H4.763V-1.732L-2.866-9.538V-2.21H-4.275Zm27.847.413h5.717v1.409H24.965v2.575h4.324v1.393H24.965V-3.6h4.324V-2.21H23.572Zm30.495,1.15-1.142.915a4.564,4.564,0,0,0-.82-.7,2.011,2.011,0,0,0-1.062-.231,2.048,2.048,0,0,0-1.232.343,1.048,1.048,0,0,0-.473.884,1.073,1.073,0,0,0,.413.828,5.653,5.653,0,0,0,1.407.786,10.04,10.04,0,0,1,1.548.8,3.95,3.95,0,0,1,.909.813A3.207,3.207,0,0,1,54.144-6a3.12,3.12,0,0,1,.174,1.044,2.941,2.941,0,0,1-.935,2.193,3.134,3.134,0,0,1-2.263.906,3.835,3.835,0,0,1-2.288-.709A4.446,4.446,0,0,1,47.3-4.7l1.409-.4A2.5,2.5,0,0,0,51.07-3.351a1.839,1.839,0,0,0,1.279-.46,1.5,1.5,0,0,0,.51-1.163,1.572,1.572,0,0,0-.267-.844,2.385,2.385,0,0,0-.665-.7,7.1,7.1,0,0,0-1.264-.63A8.953,8.953,0,0,1,49.33-7.8a3.439,3.439,0,0,1-.809-.7,2.976,2.976,0,0,1-.5-.813,2.352,2.352,0,0,1-.158-.866,2.425,2.425,0,0,1,.891-1.89,3.166,3.166,0,0,1,2.162-.781,4.385,4.385,0,0,1,1.709.364A3.511,3.511,0,0,1,54.066-11.377Zm25.109,0-1.142.915a4.565,4.565,0,0,0-.82-.7,2.011,2.011,0,0,0-1.062-.231,2.048,2.048,0,0,0-1.232.343,1.048,1.048,0,0,0-.473.884,1.073,1.073,0,0,0,.413.828,5.653,5.653,0,0,0,1.407.786,10.04,10.04,0,0,1,1.548.8,3.95,3.95,0,0,1,.909.813A3.207,3.207,0,0,1,79.253-6a3.12,3.12,0,0,1,.174,1.044,2.941,2.941,0,0,1-.935,2.193,3.134,3.134,0,0,1-2.263.906A3.835,3.835,0,0,1,73.94-2.57,4.446,4.446,0,0,1,72.414-4.7l1.409-.4A2.5,2.5,0,0,0,76.18-3.351a1.839,1.839,0,0,0,1.279-.46,1.5,1.5,0,0,0,.51-1.163,1.572,1.572,0,0,0-.267-.844,2.385,2.385,0,0,0-.665-.7,7.1,7.1,0,0,0-1.264-.63A8.953,8.953,0,0,1,74.44-7.8a3.439,3.439,0,0,1-.809-.7,2.976,2.976,0,0,1-.5-.813,2.352,2.352,0,0,1-.158-.866,2.425,2.425,0,0,1,.891-1.89,3.166,3.166,0,0,1,2.162-.781,4.385,4.385,0,0,1,1.709.364A3.511,3.511,0,0,1,79.176-11.377Z" transform="translate(120.695 12.939)" fill="#a1a1a1"/>
</svg>
